ply
format ascii 1.0
element vertex 905
property float x
property float y
property float z
property float scale_0
property float scale_1
property float scale_2
property uchar red
property uchar green
property uchar blue
property uchar alpha
end_header
-0.02851 0.37657 0.34929 0.03182 0.03166 0.01280 221 157 141 223
0.00415 -0.07203 0.37199 0.03021 0.02578 0.01101 171 199 170 210
0.03898 0.36785 0.42616 0.02049 0.02055 0.02140 228 238 150 201
0.03077 0.16594 0.21931 0.02855 0.03139 0.01769 237 222 172 234
0.04210 0.24726 0.35788 0.02916 0.02225 0.01621 137 175 233 198
0.21443 0.24359 0.29226 0.01987 0.02714 0.02375 139 168 239 197
-0.12384 0.06609 0.46640 0.02141 0.02826 0.01892 170 218 167 202
0.15747 0.23302 0.42484 0.03322 0.03429 0.01047 163 197 149 196
-0.03175 0.14263 0.29860 0.01962 0.01538 0.02269 158 156 230 224
-0.06484 -0.00444 0.28787 0.02591 0.03415 0.02250 153 131 147 222
-0.26186 0.34866 0.35944 0.03306 0.01656 0.02028 175 239 149 221
-0.14213 0.17785 0.45342 0.01621 0.01515 0.01991 206 170 180 202
0.10611 0.16437 0.36290 0.03338 0.03221 0.01100 222 184 155 238
0.03368 0.43747 0.23671 0.01846 0.01636 0.01269 235 199 179 217
0.07017 0.12529 0.26181 0.02448 0.02442 0.01217 167 189 198 215
0.21729 0.12785 0.34936 0.01563 0.01782 0.01564 160 131 237 225
-0.01464 0.22410 0.33765 0.02820 0.02390 0.01455 154 143 195 219
0.14927 0.15458 0.23905 0.03366 0.03065 0.01309 151 182 214 213
-0.03264 0.04465 0.50827 0.01644 0.03003 0.02465 187 139 216 227
-0.05809 0.38346 0.42326 0.01980 0.02988 0.01617 210 182 135 220
0.00498 0.32174 0.33375 0.03033 0.02158 0.01758 233 159 144 226
-0.12164 -0.14567 0.34037 0.02675 0.02660 0.01829 230 217 198 222
-0.11352 0.00235 0.39507 0.02964 0.02836 0.02353 183 133 163 234
-0.07467 0.07245 0.38333 0.01950 0.03329 0.01623 166 144 213 218
0.36268 0.02400 0.41857 0.03457 0.02182 0.02466 204 158 226 199
-0.00317 0.06654 0.32779 0.02755 0.03177 0.02444 132 130 202 205
-0.09288 0.12540 0.33761 0.01569 0.01529 0.02075 240 208 141 199
-0.02264 0.10371 0.22545 0.03200 0.01584 0.01286 220 197 207 193
0.09838 0.30921 0.40359 0.03000 0.02079 0.01947 172 141 139 202
-0.19518 0.08546 0.36662 0.02130 0.02265 0.02071 190 185 204 201
-0.03719 0.15146 0.24845 0.02367 0.03296 0.01605 238 202 199 217
-0.03113 0.19164 0.26543 0.03300 0.02662 0.02174 149 234 241 214
-0.10221 0.37979 0.39698 0.01930 0.02944 0.01591 129 129 239 196
0.24150 0.46202 0.32912 0.02371 0.01999 0.02145 162 135 195 227
0.02031 0.08081 0.49299 0.01953 0.02653 0.01649 153 174 137 213
-0.20839 0.14674 0.26895 0.03287 0.01519 0.01753 205 152 193 217
-0.07160 0.32653 0.35734 0.01801 0.02478 0.01460 169 150 204 198
0.05415 0.25400 0.34922 0.01719 0.02437 0.02174 198 127 147 239
-0.03804 -0.01380 0.36615 0.03133 0.02071 0.01092 215 155 161 192
-0.07058 0.19635 0.28270 0.02169 0.02112 0.01763 177 217 153 222
-0.11146 0.21190 0.43127 0.02065 0.03481 0.01159 132 182 163 215
0.19665 0.38401 0.39957 0.02716 0.02977 0.01172 141 230 132 217
0.03261 0.14811 0.31824 0.03257 0.02356 0.02215 141 185 227 208
0.14797 0.13147 0.47224 0.01952 0.02777 0.01625 166 197 132 234
0.03070 0.24080 0.32961 0.01587 0.03267 0.01467 190 129 241 203
-0.07156 0.24644 0.53141 0.02270 0.02310 0.01352 209 148 216 202
0.01972 0.10249 0.26763 0.01678 0.01715 0.01998 191 129 145 238
0.10303 0.23020 0.35200 0.02584 0.01668 0.02055 156 225 200 202
-0.04611 -0.15326 0.35147 0.01814 0.03145 0.01474 182 212 219 212
-0.15323 0.14944 0.28895 0.02051 0.01904 0.01340 229 162 148 237
-0.01919 0.34452 0.45939 0.03210 0.01774 0.01661 234 213 132 206
-0.27091 0.16072 0.39104 0.01871 0.02897 0.01963 159 144 175 204
0.04462 0.11777 0.51485 0.02461 0.02791 0.01138 150 155 190 195
0.02712 0.33632 0.24171 0.02741 0.01518 0.01199 204 235 128 192
-0.05560 0.24819 0.39548 0.02098 0.03422 0.01974 130 134 166 221
0.14078 0.26574 0.40520 0.02440 0.02281 0.02356 138 224 193 229
-0.13512 0.20204 0.35214 0.01908 0.02278 0.01453 213 166 165 204
-0.09338 -0.05787 0.41540 0.03453 0.02173 0.01675 150 219 166 225
-0.00127 -0.03582 0.18320 0.03260 0.02906 0.02190 171 236 199 226
0.20085 0.25826 0.35421 0.02078 0.02144 0.01582 226 174 152 196
-0.05582 0.25847 0.35787 0.03043 0.01797 0.02060 155 201 165 222
-0.13156 0.21283 0.38659 0.02436 0.02543 0.02366 213 200 235 235
0.27374 0.24455 0.22215 0.03221 0.02147 0.01637 153 156 192 213
0.04441 0.08564 0.30106 0.02772 0.02457 0.01435 189 222 149 227
-0.13208 -0.02425 0.31996 0.02691 0.02055 0.01910 158 224 150 214
0.00998 0.10589 0.46572 0.01818 0.03166 0.02139 224 137 137 196
0.10785 0.06791 0.45852 0.02268 0.03113 0.02471 161 128 133 214
-0.03235 0.14866 0.46758 0.02509 0.02634 0.02147 236 132 234 195
0.08877 0.40716 0.31688 0.01519 0.01777 0.02443 232 209 240 217
0.00988 0.07434 0.39111 0.02787 0.01723 0.01352 219 150 205 194
-0.15553 0.38201 0.31877 0.03126 0.02286 0.02165 190 242 229 214
-0.04737 0.12713 0.37945 0.01904 0.02391 0.01020 201 151 163 204
0.15813 0.23526 0.38725 0.02525 0.01756 0.01053 233 161 134 227
0.15909 0.22046 0.38492 0.02946 0.02562 0.02051 140 242 129 240
0.11115 0.20820 0.45416 0.02358 0.03071 0.02056 154 226 145 215
-0.08752 0.21787 0.24081 0.02007 0.02546 0.02219 175 149 174 198
-0.04708 0.24607 0.40361 0.02013 0.01940 0.01518 172 169 136 226
0.12501 0.17693 0.51756 0.03220 0.02689 0.01592 148 137 233 217
0.16247 0.25591 0.44937 0.01756 0.01845 0.01773 195 205 141 199
-0.21153 0.22266 0.43757 0.01779 0.01612 0.01204 201 191 193 208
0.16436 0.46110 0.27282 0.02930 0.03125 0.01947 167 173 157 227
0.08189 0.45671 0.32978 0.02027 0.02466 0.02026 240 233 201 236
-0.20915 0.13010 0.28210 0.01584 0.02626 0.01348 144 146 224 195
0.00657 0.21323 0.44689 0.02224 0.01737 0.01783 197 235 183 198
0.10279 0.13335 0.50189 0.02719 0.02695 0.01871 146 137 128 194
-0.22618 0.24571 0.22001 0.02637 0.02811 0.02358 165 180 138 221
-0.03016 -0.03270 0.37582 0.02795 0.03498 0.02278 167 241 132 233
-0.26845 0.18475 0.36757 0.01944 0.01877 0.02217 172 146 133 196
0.02260 0.28500 0.30239 0.02349 0.02203 0.01054 151 171 189 231
-0.26277 -0.04983 0.33139 0.03215 0.02338 0.01306 151 197 165 221
0.12328 0.31967 0.53400 0.02000 0.01723 0.01637 169 173 194 239
-0.01172 0.19196 0.42262 0.02130 0.01561 0.01980 172 130 162 230
0.11296 -0.01775 0.28717 0.03251 0.01736 0.02319 203 178 182 219
0.08003 0.26394 0.29393 0.02568 0.02945 0.02272 216 141 136 207
-0.05306 0.10132 0.37640 0.02388 0.02153 0.01630 212 170 149 212
0.17917 0.26692 0.40449 0.02094 0.01663 0.01830 186 146 133 226
-0.02566 0.38921 0.28900 0.02838 0.01624 0.01135 151 176 225 235
-0.01063 0.08132 0.29782 0.03212 0.01678 0.02051 176 208 176 229
-0.20575 0.30196 0.40391 0.01821 0.03125 0.01965 238 135 220 200
0.14611 0.03103 0.29052 0.03167 0.02031 0.01026 162 159 217 229
0.11613 -0.01984 0.33929 0.03029 0.02979 0.01498 188 198 237 230
-0.08485 0.27961 0.27788 0.03136 0.02124 0.01646 200 187 166 204
-0.01535 -0.04641 0.42916 0.01670 0.03343 0.01949 238 142 168 232
-0.04239 0.38713 0.26007 0.02508 0.02507 0.02249 188 228 180 209
-0.06875 -0.06671 0.37004 0.03149 0.02324 0.01383 145 184 191 239
0.26710 0.25518 0.41028 0.03318 0.01657 0.01723 218 182 214 231
0.01553 0.32888 0.41549 0.02293 0.02863 0.01020 168 193 218 227
0.12465 0.46937 0.20486 0.01832 0.01975 0.01332 151 237 162 236
0.13195 0.31113 0.35655 0.03312 0.01771 0.02223 218 215 154 242
-0.07723 0.31964 0.34678 0.03234 0.02889 0.01134 214 134 191 197
0.05127 0.06048 0.31719 0.02493 0.02120 0.01142 132 205 177 224
-0.05224 0.21278 0.24937 0.02442 0.01829 0.01460 241 186 199 218
0.02820 0.23759 0.38116 0.03272 0.02041 0.01846 154 145 174 197
-0.05443 0.05062 0.29345 0.01591 0.02518 0.01384 150 160 220 201
0.03329 0.02263 0.32860 0.03089 0.01953 0.01347 137 238 146 241
0.31288 0.06484 0.42115 0.03273 0.02646 0.01774 135 212 147 200
-0.00928 0.35682 0.23582 0.03253 0.02467 0.01399 182 159 167 208
-0.23889 0.03536 0.43961 0.02482 0.03465 0.01373 146 131 207 194
0.12076 0.11896 0.34425 0.02518 0.03203 0.01459 188 174 172 229
-0.06877 -0.03317 0.27787 0.02835 0.02897 0.02107 168 144 138 217
0.00141 0.35087 0.29400 0.02157 0.03049 0.01316 239 193 152 192
-0.04249 0.35615 0.26187 0.02617 0.03161 0.02344 223 221 196 194
-0.15648 0.18218 0.43427 0.02937 0.02027 0.01388 226 130 179 219
0.06483 0.04565 0.22948 0.02010 0.02214 0.01060 224 239 237 198
-0.08818 0.28040 0.49065 0.03373 0.02033 0.01903 188 160 169 219
-0.14947 0.24612 0.42706 0.02817 0.01832 0.02395 239 158 233 224
0.00039 0.13191 0.39373 0.03314 0.02476 0.01570 229 128 151 209
-0.01128 0.03394 0.34265 0.01900 0.01560 0.01701 222 183 144 201
-0.14769 0.17289 0.29953 0.02731 0.02622 0.01871 238 240 230 202
0.11105 0.30117 0.38973 0.02261 0.01626 0.01211 189 218 204 230
-0.14852 0.08814 0.43357 0.01791 0.02110 0.01830 208 230 236 241
0.02142 0.11039 0.42225 0.02349 0.01858 0.01288 222 219 195 237
-0.10037 0.22493 0.28402 0.03144 0.02266 0.01510 208 150 221 236
-0.11769 0.33003 0.31509 0.01898 0.02716 0.02083 238 172 221 195
0.09558 0.31287 0.42034 0.02783 0.01655 0.01108 190 232 228 203
-0.01426 0.31142 0.45279 0.01998 0.02157 0.01781 224 139 195 197
0.07036 0.18964 0.30571 0.03212 0.02830 0.01047 161 178 208 239
-0.12883 0.19101 0.31135 0.02550 0.03126 0.02457 186 137 162 222
0.04700 0.01642 0.36393 0.03495 0.01682 0.01840 205 181 230 193
-0.14639 0.10944 0.21656 0.02375 0.03201 0.01925 166 169 217 219
0.19333 -0.08853 0.30589 0.03281 0.01678 0.01091 175 132 161 209
-0.15023 0.30938 0.42900 0.02532 0.01663 0.02099 163 239 229 197
-0.01463 0.28963 0.38894 0.02189 0.03391 0.02376 217 216 198 232
0.08449 0.39559 0.39296 0.02290 0.02080 0.01033 190 145 154 205
0.07177 0.33538 0.33343 0.01652 0.03000 0.02191 188 225 187 209
-0.08852 0.28495 0.28417 0.02426 0.02342 0.01303 202 194 137 210
-0.02020 0.51473 0.43557 0.02617 0.02055 0.02115 162 130 138 204
0.08086 -0.00458 0.35936 0.01912 0.02099 0.02196 151 208 191 214
0.10986 0.24093 0.29614 0.02455 0.02399 0.01464 150 135 218 221
0.22552 0.21698 0.43044 0.01639 0.03455 0.01346 164 130 218 233
-0.08920 -0.07496 0.31472 0.02292 0.02194 0.01769 166 143 155 229
0.12240 0.03904 0.41437 0.02314 0.02791 0.02113 129 135 146 236
0.18262 0.25673 0.28638 0.01581 0.01638 0.02330 130 217 176 239
-0.04313 0.18060 0.23704 0.01984 0.03438 0.01544 196 139 220 199
0.09190 0.34927 0.33602 0.03206 0.01711 0.01283 228 217 164 192
0.11079 0.32223 0.38671 0.03023 0.02751 0.02050 233 182 175 236
0.08703 0.26143 0.22784 0.02852 0.03362 0.01913 204 176 203 225
0.05274 0.24234 0.26229 0.03130 0.02692 0.02127 218 210 133 225
-0.05030 0.06591 0.33880 0.02170 0.01588 0.01669 231 229 217 238
0.10008 0.18935 0.31718 0.03459 0.03134 0.01996 128 209 235 221
0.05968 0.01369 0.44316 0.01838 0.03130 0.01559 215 190 235 202
-0.08128 0.34243 0.36051 0.03290 0.02895 0.01820 160 139 140 210
0.15180 0.16103 0.38466 0.03108 0.01870 0.01577 178 149 159 212
0.36826 0.17557 0.43242 0.01913 0.02011 0.01691 241 233 132 229
0.20919 0.33674 0.36162 0.03173 0.02288 0.02111 236 174 240 194
-0.14193 0.61303 0.34769 0.03119 0.01808 0.02290 212 162 186 220
-0.00767 -0.02689 0.35545 0.02488 0.01926 0.02088 209 201 198 204
0.05700 0.32352 0.46121 0.03036 0.02421 0.01547 133 237 133 192
-0.09286 0.09052 0.31357 0.01571 0.01839 0.01955 175 211 207 210
0.11622 0.12329 0.34619 0.02930 0.02020 0.01869 162 146 200 229
0.16769 0.23992 0.27084 0.02884 0.03365 0.01417 192 227 139 242
0.03977 0.33805 0.46192 0.02393 0.01565 0.01700 236 198 144 241
-0.20921 0.12327 0.44556 0.03282 0.01604 0.01187 169 206 186 231
0.23519 0.49847 0.35001 0.03140 0.03278 0.01752 150 196 174 233
-0.13113 0.23049 0.40383 0.02053 0.03441 0.01860 204 180 132 240
-0.00301 0.06013 0.40928 0.02466 0.03183 0.01786 205 181 159 212
-0.14867 0.28713 0.31387 0.02306 0.02333 0.01633 151 152 209 215
0.02550 0.24829 0.31389 0.03195 0.02340 0.01282 145 165 194 235
-0.09870 0.21471 0.32514 0.02277 0.01966 0.01774 144 171 198 200
-0.06131 0.29875 0.40822 0.02741 0.02995 0.02084 184 241 175 237
-0.24050 0.16925 0.28822 0.03060 0.02991 0.01858 128 133 178 216
-0.09914 0.36553 0.25093 0.02953 0.01585 0.01806 230 147 136 216
0.18266 0.08015 0.33119 0.01751 0.03032 0.01682 133 169 150 197
0.03638 0.04659 0.48480 0.02901 0.02837 0.01279 155 134 166 228
-0.04088 0.35576 0.27617 0.02745 0.01865 0.01842 174 194 219 196
-0.15620 0.32539 0.33968 0.01836 0.02027 0.01107 155 227 231 231
-0.21037 0.09434 0.40646 0.02277 0.01926 0.01281 176 178 216 217
-0.08935 0.37246 0.26627 0.03087 0.01778 0.01599 213 149 209 236
0.12031 0.22476 0.48613 0.03446 0.02404 0.01751 208 211 166 241
0.05119 0.06214 0.44526 0.02998 0.02899 0.01665 213 157 151 204
-0.18251 0.02451 0.28756 0.01596 0.03308 0.01689 174 170 237 204
0.07668 0.43741 0.15517 0.01765 0.02231 0.01898 204 165 163 236
0.03113 0.17210 0.44674 0.02067 0.02110 0.02317 209 168 219 210
0.05959 0.23913 0.34475 0.02682 0.01750 0.02066 231 130 146 229
0.01466 0.33783 0.38067 0.03318 0.02835 0.02017 166 240 220 195
-0.03772 0.01964 0.35818 0.01912 0.01759 0.01368 166 170 155 214
-0.01978 -0.17161 0.38373 0.03387 0.03098 0.01048 236 138 231 199
-0.19049 0.17471 0.33303 0.03207 0.01559 0.01964 168 164 210 208
-0.12684 0.07677 0.44262 0.02010 0.02226 0.02433 141 182 236 205
-0.14387 0.24148 0.27373 0.03257 0.02192 0.01901 175 136 189 233
-0.09013 0.17323 0.23979 0.02909 0.02369 0.01536 168 129 214 208
0.13294 0.06368 0.42840 0.02897 0.01916 0.02351 148 233 218 218
0.07746 0.11772 0.26769 0.01718 0.01636 0.02334 211 142 180 228
-0.11148 0.32258 0.34245 0.02644 0.01723 0.02360 134 232 194 201
0.12530 0.31492 0.43525 0.02704 0.03229 0.01321 154 207 185 227
0.02558 0.33566 0.29579 0.03394 0.02768 0.01534 162 191 226 234
-0.17517 0.32247 0.52454 0.02750 0.02779 0.02490 239 182 170 207
0.01278 0.44824 0.46498 0.01740 0.01830 0.01429 173 140 171 214
-0.02070 0.29465 0.36993 0.02562 0.03218 0.01577 209 162 206 220
-0.11819 0.32524 0.35300 0.02248 0.01962 0.01625 234 194 129 197
0.08991 0.10174 0.41072 0.03449 0.02362 0.01756 232 193 203 208
-0.22863 0.26394 0.30879 0.03031 0.01800 0.01741 162 216 198 208
0.03500 0.24347 0.48145 0.03476 0.03325 0.01851 225 221 233 239
-0.02726 0.08880 0.40180 0.02131 0.02209 0.01092 156 140 153 197
-0.00658 0.42019 0.45946 0.02007 0.03077 0.02185 140 153 230 215
0.11245 0.34378 0.37463 0.01572 0.02512 0.01936 195 228 155 201
-0.04908 0.03777 0.42175 0.02543 0.01649 0.01009 141 163 225 233
0.23509 0.46027 0.45566 0.03182 0.02803 0.02158 210 164 206 218
0.19508 0.40044 0.37156 0.03333 0.01915 0.01788 224 197 241 226
0.21110 0.17949 0.32612 0.02642 0.02765 0.02429 193 178 184 239
-0.07789 0.23293 0.32607 0.02927 0.03329 0.02073 160 169 231 200
-0.01650 0.14401 0.44938 0.02103 0.03347 0.01539 198 134 231 225
-0.10824 0.22671 0.23601 0.03463 0.03353 0.01224 188 158 159 215
0.01362 -0.10957 0.32808 0.01952 0.02706 0.02093 158 186 201 191
-0.06355 0.39156 0.30222 0.02636 0.03197 0.01795 138 167 206 229
0.00290 0.39256 0.45007 0.03035 0.03219 0.01816 172 130 174 200
0.18372 0.24094 0.35600 0.02622 0.02926 0.01030 156 211 148 199
0.14703 0.45674 0.30471 0.01644 0.03373 0.01463 140 232 137 209
0.24923 0.26120 0.41485 0.02170 0.03166 0.02156 161 175 186 214
0.11801 0.18742 0.34993 0.03482 0.02142 0.02341 178 148 207 213
0.09738 0.05439 0.41421 0.02375 0.01975 0.01759 218 141 236 233
-0.01036 -0.01949 0.27510 0.02978 0.02141 0.01765 223 142 192 229
-0.03665 0.01047 0.28411 0.01672 0.01704 0.01194 168 145 228 192
-0.09268 0.18768 0.30372 0.03433 0.02243 0.01436 157 205 227 225
-0.02625 0.23047 0.27685 0.03178 0.02047 0.02240 153 187 195 216
-0.07743 0.10348 0.32817 0.02496 0.02965 0.01638 173 158 170 228
-0.23251 0.26228 0.39778 0.03147 0.02504 0.01532 156 177 176 198
-0.09241 0.32337 0.38272 0.02783 0.02405 0.02281 179 191 134 219
0.01898 0.30345 0.36225 0.03341 0.03068 0.01742 214 145 238 207
-0.09884 0.33154 0.23567 0.01572 0.01666 0.02185 176 167 137 220
0.09212 0.39851 0.34603 0.01987 0.02205 0.02350 173 192 235 227
0.00518 0.34341 0.36604 0.03313 0.01820 0.01166 233 194 235 239
-0.09213 0.34659 0.38212 0.03159 0.02598 0.01711 156 239 240 214
-0.05325 0.38663 0.49415 0.03266 0.01778 0.02055 175 181 169 206
-0.18030 0.22069 0.31400 0.03110 0.01585 0.02241 144 206 235 227
0.00011 0.58642 0.29368 0.02346 0.01601 0.01578 140 154 234 223
-0.06607 0.18120 0.41342 0.01533 0.02802 0.01666 194 206 206 208
-0.06062 0.02058 0.44277 0.01940 0.02776 0.01524 134 212 150 193
0.03466 0.28449 0.23460 0.01827 0.02794 0.01246 162 189 153 231
0.10674 0.23380 0.37516 0.02929 0.01704 0.01925 222 170 221 223
0.06002 0.06614 0.41061 0.01676 0.03392 0.02470 193 141 170 194
0.12630 0.22439 0.31345 0.01552 0.03130 0.01086 226 238 176 217
-0.16056 0.30860 0.37361 0.02508 0.02412 0.01492 192 165 219 206
0.10078 0.15813 0.33654 0.01830 0.02772 0.02301 212 234 138 228
0.13857 0.17826 0.27742 0.01689 0.01966 0.01121 172 202 168 222
0.15288 0.20074 0.20028 0.02307 0.03176 0.01660 133 223 230 234
-0.07693 0.21736 0.35890 0.01608 0.02282 0.01907 191 194 192 199
-0.15105 0.02761 0.22107 0.02764 0.02565 0.01587 133 194 186 195
0.16495 0.48268 0.36525 0.03009 0.03345 0.01181 191 148 219 201
0.05239 -0.04657 0.42920 0.02775 0.02763 0.01784 136 233 132 241
0.14134 0.04072 0.21154 0.02713 0.03445 0.02160 134 144 205 239
0.08909 0.03486 0.28772 0.03331 0.02663 0.01330 153 169 137 200
-0.10811 0.29440 0.29048 0.01655 0.03070 0.02376 216 232 168 228
-0.03410 0.14100 0.40120 0.02120 0.03244 0.02235 236 211 229 215
0.05951 0.07853 0.38131 0.02071 0.02226 0.01044 153 135 192 193
-0.17229 0.00487 0.36619 0.02453 0.02519 0.01465 207 161 178 241
-0.08408 0.45082 0.50799 0.01790 0.01879 0.01339 210 211 178 210
0.13408 0.05890 0.30033 0.03205 0.01708 0.01650 194 140 189 238
0.09853 0.17267 0.30487 0.01502 0.02377 0.02146 207 232 211 204
0.07079 0.27316 0.25978 0.03258 0.01943 0.02337 146 197 170 193
0.18885 0.01218 0.30401 0.02289 0.02651 0.01117 178 135 203 223
-0.11269 0.22131 0.45177 0.02975 0.02875 0.02451 189 205 127 235
0.18650 0.34740 0.32247 0.01691 0.03136 0.01571 194 141 185 217
0.25093 0.23992 0.28703 0.02275 0.01532 0.01982 216 143 147 195
0.07393 0.21595 0.35651 0.03245 0.01862 0.01579 186 190 225 228
-0.07972 0.27889 0.35775 0.02831 0.01596 0.01559 149 225 167 220
-0.07760 0.50093 0.27257 0.02409 0.02444 0.01133 234 241 188 226
-0.14639 0.24129 0.50898 0.03209 0.02883 0.01378 179 152 208 193
0.04678 0.22137 0.30432 0.02450 0.01613 0.02333 145 181 185 224
-0.01582 0.46050 0.27664 0.02714 0.03219 0.01949 198 196 139 231
-0.02629 0.06833 0.47649 0.03003 0.02597 0.01580 223 223 234 238
0.13110 0.24025 0.27250 0.02075 0.03472 0.02196 161 242 174 206
-0.06323 0.11188 0.25839 0.03357 0.01581 0.01554 133 210 206 215
0.03362 0.30370 0.33131 0.03167 0.02957 0.02295 206 197 166 215
0.01506 0.34110 0.39268 0.03316 0.01960 0.01003 235 174 158 200
-0.05527 0.20883 0.42606 0.03304 0.02677 0.01395 175 169 199 195
0.10651 0.43553 0.26184 0.02669 0.03383 0.01677 165 180 136 229
0.03883 0.39085 0.31987 0.02083 0.02923 0.01020 230 237 170 233
-0.05294 0.24969 0.31005 0.03301 0.01810 0.02500 220 176 149 193
-0.11528 0.17032 0.29042 0.01721 0.02452 0.01360 172 223 170 218
0.05137 0.09996 0.28408 0.01609 0.02873 0.01947 132 159 130 223
-0.00177 0.33266 0.31170 0.03221 0.01818 0.01280 212 229 234 235
0.02452 0.17414 0.36442 0.01762 0.02645 0.01225 185 184 222 214
0.21913 0.16151 0.22958 0.01635 0.02929 0.02337 135 217 132 205
0.00974 0.05141 0.45789 0.01507 0.03463 0.01866 196 223 232 214
0.18761 -0.14372 0.34276 0.02117 0.02300 0.02311 197 131 190 211
0.02097 0.00231 0.36151 0.02264 0.03085 0.01464 170 206 188 209
-0.01207 0.34673 0.36059 0.02624 0.02414 0.01420 187 241 146 236
0.22337 0.08132 0.35824 0.02263 0.02498 0.01570 232 135 207 206
-0.18856 -0.03632 0.31702 0.03112 0.03226 0.02004 201 231 194 227
0.07481 0.25144 0.34402 0.03004 0.02422 0.02405 160 166 209 233
-0.00988 0.12690 0.31956 0.01634 0.03127 0.01705 239 159 225 221
0.00791 0.25062 0.43275 0.02127 0.01833 0.02438 207 165 227 216
0.09495 -0.08247 0.19358 0.02949 0.02508 0.02103 234 148 208 230
-0.23832 0.22148 0.38131 0.03178 0.02190 0.01276 204 130 188 205
0.16384 0.12696 0.42646 0.02964 0.02917 0.01792 196 189 128 217
-0.04368 0.19196 0.53532 0.02116 0.01786 0.01514 192 239 214 213
-0.04642 0.22834 0.27699 0.01757 0.02925 0.01625 241 145 201 209
0.15092 0.33690 0.47108 0.02803 0.02189 0.01580 187 165 186 194
-0.14022 -0.01027 0.27452 0.01541 0.03094 0.01454 187 137 176 229
0.10775 0.04708 0.28786 0.02630 0.02604 0.02444 188 158 161 234
-0.15090 0.25795 0.49149 0.02551 0.01876 0.02124 182 150 196 210
-0.02291 0.18737 0.40577 0.01663 0.01821 0.01590 151 165 139 238
0.28640 0.05070 0.30560 0.03339 0.02077 0.01768 208 198 188 224
0.10883 0.23855 0.14860 0.02089 0.03324 0.01201 203 188 178 195
-0.09516 0.07431 0.17057 0.03172 0.02356 0.02073 240 196 154 212
0.07648 0.32063 0.39072 0.02937 0.03484 0.01371 142 155 220 198
-0.15088 0.19266 0.43515 0.02453 0.02452 0.02385 175 239 219 241
0.11578 0.23687 0.40317 0.01827 0.03421 0.01878 233 226 218 219
0.17198 0.34221 0.30489 0.02771 0.01702 0.01258 131 200 171 197
0.01594 0.22331 0.26643 0.01745 0.02178 0.01663 150 132 172 193
-0.06012 0.25958 0.36241 0.02784 0.03275 0.01822 200 176 149 237
0.17568 0.36337 0.31816 0.03047 0.02115 0.02099 185 127 132 196
-0.12719 0.16810 0.33381 0.03457 0.01959 0.01536 139 175 154 220
0.09784 0.21293 0.35244 0.02195 0.01769 0.02403 203 203 132 209
-0.13619 0.37085 0.38094 0.01751 0.03487 0.01250 128 164 155 205
-0.08190 0.09260 0.31847 0.02151 0.02518 0.01867 186 155 142 230
-0.13360 0.20046 0.27999 0.02143 0.01880 0.01411 217 162 167 209
-0.02496 0.36280 0.35168 0.02160 0.01869 0.01072 168 230 134 230
0.15392 0.12659 0.38130 0.01684 0.02135 0.01933 169 234 168 211
-0.16595 0.31995 0.25200 0.02963 0.03059 0.02386 165 232 152 239
-0.23408 0.23269 0.39929 0.02884 0.02068 0.01998 128 182 155 205
0.00372 0.45909 0.34213 0.01999 0.02935 0.02423 139 181 131 211
0.01436 0.24663 0.34234 0.02919 0.02307 0.02030 219 220 206 230
0.16494 0.41981 0.42568 0.02624 0.03350 0.01526 157 169 141 191
0.15616 0.26619 0.42503 0.01521 0.02303 0.01137 232 177 165 199
0.10840 0.17080 0.26476 0.02089 0.03286 0.01815 130 137 192 220
-0.07189 0.35182 0.35851 0.02762 0.03061 0.01425 187 219 156 193
-0.05235 0.47453 0.39118 0.01745 0.01952 0.01169 195 178 164 240
-0.08551 0.23435 0.29251 0.02196 0.02317 0.01463 217 155 233 206
0.12457 0.03391 0.34541 0.02512 0.01594 0.01501 173 139 224 226
0.09660 0.42222 0.48295 0.02190 0.02683 0.02408 149 213 210 201
0.21129 0.46692 0.34612 0.02803 0.02049 0.01531 234 165 215 220
-0.34639 0.19537 0.32956 0.03364 0.02191 0.02438 157 207 163 215
0.01502 0.04159 0.31033 0.02814 0.03491 0.01084 227 152 226 232
0.12125 0.41131 0.46793 0.02197 0.02250 0.01376 229 179 198 195
-0.10794 0.41090 0.29429 0.01985 0.02823 0.02490 170 139 128 213
-0.11849 0.08295 0.27297 0.01775 0.01857 0.01890 137 154 238 205
0.07238 0.16281 0.46570 0.01904 0.01897 0.01236 158 164 127 238
0.11949 0.28896 0.46281 0.02630 0.02607 0.02100 231 158 233 233
-0.21430 0.31896 0.43487 0.03298 0.03225 0.01335 130 163 194 196
-0.15054 0.34174 0.48340 0.01692 0.01576 0.01103 141 241 207 205
-0.03678 0.21841 0.23365 0.02087 0.02019 0.01576 182 212 159 205
0.07301 0.28397 0.31315 0.03328 0.03030 0.01493 145 135 169 196
-0.06079 0.14775 0.30617 0.02308 0.02493 0.01003 198 156 226 192
0.01564 0.10146 0.28178 0.02927 0.01584 0.01705 214 142 237 212
0.02271 0.17788 0.27649 0.02409 0.02670 0.02126 162 179 160 238
-0.03256 0.30735 0.49541 0.03366 0.02435 0.01185 156 208 177 241
-0.12916 0.11238 0.13927 0.01939 0.01632 0.01701 133 224 206 200
-0.26428 0.17381 0.23574 0.03047 0.02980 0.01641 213 204 187 212
-0.05391 0.15116 0.30126 0.01824 0.02336 0.01147 131 143 194 198
-0.02127 0.17743 0.41710 0.03389 0.01512 0.02136 222 205 160 241
-0.06551 0.36853 0.32891 0.03017 0.02611 0.02210 154 164 208 219
-0.15865 0.16623 0.22840 0.03262 0.03368 0.01442 134 151 161 212
-0.12198 0.00605 0.39015 0.02512 0.03039 0.01205 207 222 233 238
0.08250 0.15669 0.44584 0.02704 0.01931 0.02057 232 145 155 212
0.16565 0.09421 0.40150 0.03156 0.02593 0.01455 157 203 219 204
0.01400 0.27901 0.27568 0.03077 0.03463 0.01779 210 231 151 210
0.08402 0.26696 0.30432 0.01873 0.02795 0.02295 161 187 241 195
-0.11918 0.09306 0.31579 0.01770 0.02931 0.02281 206 168 151 197
0.09927 0.35035 0.33167 0.01697 0.02806 0.01679 183 138 224 213
-0.03735 0.31743 0.23748 0.01857 0.02425 0.02133 204 174 128 225
-0.00728 0.15517 0.44179 0.02531 0.02947 0.01022 154 184 229 205
-0.04410 0.18318 0.42863 0.02008 0.03299 0.01497 185 217 148 215
-0.03168 -0.03349 0.37933 0.02049 0.02490 0.01515 167 190 193 207
-0.07049 0.12441 0.37442 0.02255 0.03099 0.01731 145 154 201 218
0.00756 0.23171 0.26396 0.01772 0.02001 0.01382 224 177 183 215
0.14081 0.58390 0.31208 0.02608 0.03068 0.01278 226 231 192 229
0.05100 0.33199 0.27168 0.02236 0.03057 0.02100 237 231 231 195
-0.01236 0.21024 0.23645 0.02077 0.02790 0.01235 234 208 206 233
0.05378 0.32618 0.45335 0.02625 0.02894 0.01005 234 129 226 200
-0.13638 0.19792 0.29546 0.03345 0.02925 0.01329 164 133 211 236
-0.18234 0.05537 0.45511 0.03191 0.02404 0.01597 213 199 179 200
-0.08335 0.28465 0.39008 0.03226 0.02204 0.02275 170 175 138 204
0.07892 0.10867 0.34378 0.02335 0.01857 0.01450 168 236 185 192
-0.27252 0.57579 0.50307 0.03201 0.02640 0.01880 153 183 205 195
0.06323 0.30462 0.38212 0.01631 0.02379 0.01711 227 133 236 227
0.29344 0.11011 0.35818 0.03297 0.01964 0.01876 182 130 213 217
-0.13734 0.29443 0.42668 0.02232 0.02986 0.01642 192 132 202 192
-0.03730 0.25420 0.32224 0.03159 0.03399 0.01113 202 193 128 195
0.07156 0.19676 0.27501 0.01792 0.01988 0.01112 130 174 150 215
0.13026 0.20457 0.31559 0.03157 0.02692 0.01072 191 225 195 205
0.06606 0.00843 0.39255 0.03361 0.02325 0.02284 210 156 148 236
-0.01043 -0.05907 0.39807 0.03427 0.02630 0.01703 225 196 165 241
-0.11403 0.09726 0.45104 0.01821 0.01879 0.02436 168 173 225 198
-0.20654 0.16565 0.39953 0.02235 0.02158 0.01991 209 155 201 218
0.09434 0.21147 0.22862 0.03491 0.02369 0.02355 138 133 200 213
-0.13976 0.25442 0.35645 0.03000 0.02645 0.02372 221 189 228 226
0.01576 0.13572 0.18931 0.02850 0.01866 0.01067 191 142 168 229
0.04006 0.10079 0.31819 0.02651 0.03411 0.01835 164 158 134 225
-0.13107 0.41434 0.34681 0.02571 0.02099 0.01946 134 236 173 223
0.22640 0.09452 0.33128 0.01743 0.02952 0.01538 223 142 195 221
0.18901 0.15059 0.38919 0.03164 0.01532 0.01186 163 225 212 214
0.08712 0.41471 0.30041 0.02713 0.03311 0.02452 134 190 233 230
0.01131 0.27400 0.20872 0.01511 0.02433 0.01532 137 231 179 205
-0.01526 0.26144 0.25856 0.02904 0.02719 0.01451 149 198 216 219
-0.01833 0.36584 0.33221 0.02154 0.01942 0.01014 196 152 210 208
-0.07301 -0.01466 0.38688 0.02269 0.01779 0.01086 138 222 201 225
-0.06063 0.17380 0.31735 0.01701 0.02957 0.01786 165 238 233 215
-0.10519 0.08272 0.38781 0.01773 0.02748 0.01275 165 134 152 225
-0.30979 -0.09866 0.41493 0.01807 0.02625 0.01074 147 235 165 192
0.04997 0.19544 0.29991 0.01770 0.03096 0.02255 213 214 211 200
-0.13746 0.21557 0.42964 0.03336 0.02075 0.02490 214 213 178 228
0.11851 0.35625 0.22960 0.02527 0.02623 0.01457 199 138 204 240
-0.03542 0.13748 0.43079 0.02276 0.02027 0.02114 128 173 203 236
0.06320 0.29566 0.48520 0.02847 0.03217 0.02442 209 231 231 220
0.19212 0.29372 0.27141 0.01607 0.03257 0.02063 237 235 185 218
-0.03628 0.33091 0.42798 0.02895 0.03318 0.01454 143 195 132 240
-0.03524 0.36345 0.33522 0.02842 0.02489 0.02316 223 132 214 206
-0.01689 0.13937 0.37420 0.02216 0.03116 0.02223 215 156 224 215
-0.05133 0.15994 0.29386 0.01530 0.03371 0.02314 155 191 156 206
0.07987 0.08043 0.21267 0.03465 0.02585 0.02417 192 231 140 209
-0.04550 0.28667 0.36580 0.02873 0.03263 0.01158 240 143 138 230
-0.21176 0.15604 0.37910 0.02785 0.02510 0.01734 185 168 148 233
-0.06988 0.06521 0.42351 0.01576 0.01532 0.01641 149 153 219 223
0.12327 -0.05761 0.29387 0.03208 0.02984 0.01662 186 138 212 238
0.13330 0.29143 0.33785 0.01543 0.03430 0.01234 181 166 204 203
-0.32522 0.39675 0.34235 0.02865 0.03267 0.02417 131 168 144 237
-0.13016 0.16579 0.43290 0.02564 0.02784 0.02374 230 139 223 195
0.14135 0.48542 0.43119 0.03217 0.02814 0.01209 189 189 214 230
-0.17604 0.11185 0.48132 0.01518 0.03458 0.02227 210 213 174 236
-0.08736 0.04603 0.38588 0.01531 0.03084 0.02047 150 172 221 228
0.14635 0.35160 0.37740 0.02351 0.02032 0.01476 241 154 129 221
0.27067 0.05911 0.35929 0.02574 0.02991 0.01005 233 196 189 207
-0.07142 0.26648 0.32054 0.01801 0.01777 0.01854 144 189 181 228
0.14935 0.43165 0.24049 0.02478 0.01821 0.02390 220 158 135 191
-0.05341 0.10315 0.39838 0.03325 0.01791 0.01829 172 181 202 208
0.09810 0.15488 0.25592 0.02438 0.02517 0.02177 188 135 149 215
-0.12444 0.05606 0.19589 0.02198 0.02895 0.02392 171 202 189 232
-0.03854 0.16268 0.25035 0.01531 0.03052 0.01532 130 205 129 232
0.05932 0.19692 0.41524 0.03374 0.01646 0.01649 214 152 162 221
-0.09826 0.01708 0.29452 0.01812 0.03228 0.01560 203 167 133 194
-0.04394 0.17284 0.31378 0.02263 0.03424 0.02201 241 149 169 203
0.12252 0.27827 0.31799 0.02720 0.03032 0.01096 215 178 207 200
-0.14778 -0.10514 0.40944 0.01809 0.01746 0.01444 197 227 147 212
0.15160 0.22723 0.41780 0.02244 0.02145 0.01555 166 175 151 223
-0.06958 -0.03199 0.31489 0.01834 0.02364 0.01653 195 173 232 218
-0.14147 0.39680 0.41636 0.02771 0.02551 0.01627 141 187 135 215
0.04785 0.28151 0.36519 0.02970 0.01880 0.01934 195 133 189 195
-0.13371 0.39352 0.37196 0.03167 0.03462 0.02405 198 153 173 195
-0.08125 -0.18645 0.28471 0.02796 0.03327 0.02128 231 171 240 205
-0.03996 0.14386 0.34522 0.01513 0.02780 0.01460 230 132 186 222
-0.01778 0.19048 0.35607 0.03135 0.01635 0.01584 163 163 223 223
0.19871 0.09172 0.19563 0.01670 0.03215 0.02207 235 165 177 211
0.10192 0.23565 0.42041 0.02527 0.02557 0.01440 171 144 169 200
-0.04257 -0.07978 0.37882 0.01714 0.02498 0.01315 230 176 127 203
-0.04662 0.15063 0.51599 0.02468 0.02143 0.01826 224 212 238 194
-0.19991 0.33877 0.50909 0.02707 0.01978 0.01075 169 149 159 211
0.06516 0.33211 0.52539 0.01656 0.02907 0.02284 212 231 195 223
0.13190 0.22194 0.41962 0.03475 0.02258 0.01625 187 223 212 211
-0.02371 0.12164 0.52885 0.01987 0.03022 0.01294 172 193 148 204
-0.16745 0.32065 0.24879 0.02194 0.01520 0.02208 199 146 196 233
-0.05541 0.28314 0.41493 0.03363 0.01727 0.02334 193 222 239 195
0.08798 0.43566 0.28988 0.02498 0.02798 0.01226 157 132 133 239
-0.07011 0.35405 0.33841 0.01590 0.02793 0.01734 160 182 191 196
-0.16106 0.31304 0.31768 0.02875 0.03457 0.02399 239 202 151 232
0.14581 0.20715 0.26769 0.02251 0.03367 0.01864 170 154 206 200
0.03556 0.27623 0.35536 0.02527 0.01658 0.01851 188 190 151 222
-0.08569 0.33411 0.34373 0.02787 0.02702 0.01982 143 177 198 227
-0.00961 0.00711 0.24210 0.01718 0.02762 0.01147 156 201 221 200
0.15882 0.04563 0.35886 0.02866 0.03394 0.01240 186 174 236 232
-0.06169 0.10639 0.27462 0.01609 0.03142 0.01295 173 136 136 200
-0.02177 0.20671 0.39273 0.03276 0.02329 0.01572 202 240 168 207
0.06816 0.09559 0.26821 0.01625 0.03132 0.02252 144 131 145 209
-0.03149 0.40418 0.16070 0.02374 0.02969 0.01452 150 213 198 232
0.04565 0.29506 0.53267 0.02428 0.01764 0.01508 143 158 241 226
0.07714 0.56518 0.28053 0.01569 0.03042 0.01486 213 181 213 229
0.03295 0.32687 0.37098 0.03394 0.01765 0.01585 170 217 231 208
0.05802 0.41167 0.22348 0.02803 0.01686 0.02160 211 142 237 230
0.08549 0.27864 0.37275 0.02864 0.01639 0.02471 223 241 161 212
0.04426 0.39432 0.34176 0.02600 0.03041 0.02091 228 210 165 208
0.08605 0.05062 0.34732 0.02515 0.01757 0.02125 162 221 153 202
0.04825 0.19458 0.32575 0.03043 0.02183 0.01333 154 150 215 224
0.17820 0.18886 0.29506 0.03031 0.01635 0.02135 233 176 156 212
0.12898 0.24748 0.46225 0.02064 0.01503 0.02275 191 182 238 198
-0.08264 0.34199 0.24676 0.01706 0.01805 0.01368 234 151 144 230
-0.04098 0.06647 0.20446 0.02261 0.03498 0.02152 132 148 167 223
-0.08549 -0.03524 0.34762 0.01876 0.01533 0.01540 218 219 189 224
-0.28186 0.14550 0.43011 0.02836 0.02186 0.01555 135 202 233 205
-0.12624 0.14695 0.32828 0.03063 0.02679 0.01590 158 159 185 217
-0.12077 0.18873 0.33812 0.02433 0.02252 0.01066 221 210 234 207
-0.00437 0.00737 0.33485 0.01968 0.01534 0.02262 215 167 214 201
-0.12731 0.16775 0.40479 0.02259 0.01542 0.01818 218 160 199 206
-0.17664 0.24827 0.51956 0.03147 0.03027 0.01202 234 164 148 229
-0.17106 0.17086 0.31518 0.02075 0.02629 0.01822 132 230 228 225
0.00872 0.22155 0.41154 0.03019 0.02343 0.01419 176 160 133 214
-0.20042 0.26491 0.53556 0.03500 0.01915 0.02034 231 129 150 213
-0.21288 0.14817 0.49959 0.02724 0.02202 0.01008 177 236 193 204
-0.13495 0.10019 0.29697 0.02013 0.03049 0.01270 192 155 221 196
-0.06826 0.26131 0.47432 0.02514 0.01867 0.01761 159 195 223 222
0.19501 0.23722 0.34180 0.01629 0.02398 0.01399 195 168 196 216
-0.22320 0.06196 0.26979 0.02571 0.02862 0.01839 129 145 203 221
-0.18507 0.15749 0.28306 0.02929 0.02751 0.01275 232 211 137 197
0.00282 0.33669 0.37149 0.03454 0.01772 0.02318 205 131 132 198
-0.15285 -0.05709 0.39983 0.03327 0.02283 0.01772 140 209 201 218
0.04005 0.26006 0.38368 0.02086 0.02538 0.02168 165 175 157 230
-0.32280 0.21304 0.47539 0.01582 0.01806 0.01363 162 232 182 213
-0.05881 -0.18594 0.44497 0.02855 0.03242 0.01600 241 179 176 209
0.19717 0.13392 0.32787 0.01603 0.02888 0.01926 170 137 227 225
-0.00317 0.38022 0.27149 0.02935 0.02152 0.01275 229 144 164 193
-0.10417 0.12738 0.41569 0.02268 0.01841 0.01854 175 238 227 236
-0.02627 0.11892 0.40459 0.02755 0.03379 0.01645 225 213 235 201
0.06148 0.08931 0.40080 0.02218 0.02564 0.02249 147 223 177 219
-0.00209 0.21534 0.35139 0.03267 0.02779 0.01257 216 172 172 222
-0.10452 0.24236 0.45413 0.02400 0.03103 0.02494 230 211 128 226
-0.12580 0.15009 0.36183 0.02224 0.02731 0.01906 189 214 172 217
0.22924 0.28828 0.37854 0.01527 0.02974 0.01949 169 205 217 223
0.00374 0.03074 0.30955 0.03444 0.03203 0.01204 147 150 189 211
-0.05348 0.23003 0.49806 0.03255 0.02340 0.02262 236 176 141 198
0.04751 0.27526 0.35561 0.03435 0.02712 0.01047 232 190 182 206
-0.01048 0.12944 0.46804 0.02995 0.02343 0.01681 220 199 199 230
0.06861 0.25543 0.18257 0.02542 0.01700 0.02386 145 210 148 214
0.10990 0.08070 0.36649 0.02805 0.01729 0.01418 237 216 222 205
0.11371 0.25730 0.29956 0.03500 0.02718 0.01146 167 225 150 224
0.03221 0.31641 0.54645 0.01620 0.01863 0.01718 191 217 142 217
-0.08190 0.06170 0.41261 0.02818 0.01815 0.01395 192 142 191 203
0.11256 0.28281 0.27672 0.02244 0.02794 0.01920 226 139 187 230
-0.03206 0.18657 0.29608 0.02670 0.02893 0.02332 168 226 176 237
0.00713 0.07829 0.43959 0.01579 0.02550 0.01739 129 159 186 191
0.14015 0.03790 0.22387 0.02615 0.02256 0.02279 219 239 145 242
-0.05911 0.26611 0.23647 0.01616 0.01696 0.02320 163 132 207 195
0.04793 0.25982 0.29653 0.02459 0.01816 0.01517 209 183 166 221
-0.00721 0.19623 0.51336 0.03038 0.03260 0.01101 237 179 207 240
-0.03967 0.17865 0.30630 0.02123 0.01982 0.01436 182 230 224 199
-0.19804 -0.05808 0.34743 0.01587 0.03353 0.01997 149 179 210 212
-0.08224 0.46061 0.36175 0.02169 0.03340 0.01634 153 239 133 213
0.18738 0.37864 0.56422 0.02543 0.02431 0.01175 155 151 163 206
0.04104 0.45723 0.39450 0.02138 0.02393 0.01903 198 210 231 232
-0.08969 0.30280 0.27448 0.02073 0.02304 0.01178 189 171 133 211
0.09488 0.26610 0.42131 0.03427 0.01766 0.01991 158 206 204 208
0.03215 0.08509 0.30640 0.02669 0.02440 0.02234 198 178 184 237
-0.04856 0.05381 0.44346 0.03244 0.01593 0.02071 222 203 161 201
-0.10403 0.31875 0.39880 0.03061 0.01513 0.01609 161 204 178 212
-0.03327 0.11902 0.39742 0.01799 0.02622 0.01974 136 224 232 209
0.13307 0.34742 0.43215 0.02140 0.02943 0.01231 184 180 172 222
0.00320 0.00611 0.33622 0.03489 0.02007 0.01214 201 164 196 193
-0.03918 0.31308 0.23487 0.01640 0.02235 0.01218 131 220 166 208
0.00387 0.53865 0.48824 0.02844 0.02664 0.01402 156 135 223 228
-0.05583 0.12149 0.17591 0.03417 0.03340 0.01057 139 169 145 212
-0.21988 0.26794 0.43823 0.02457 0.02536 0.02422 150 183 233 219
-0.02852 0.27766 0.29148 0.02078 0.03099 0.02019 205 227 193 215
0.04995 0.45539 0.38700 0.03085 0.02078 0.01529 200 180 219 223
-0.23641 0.26263 0.34657 0.02848 0.02281 0.01784 191 205 147 232
-0.07645 0.26022 0.29216 0.01553 0.01968 0.01949 128 192 220 216
0.04197 0.18663 0.27155 0.02648 0.01567 0.01228 188 212 164 192
0.05811 -0.02343 0.42368 0.02048 0.02132 0.02373 132 205 202 192
0.03278 0.03247 0.28206 0.01591 0.02737 0.01585 158 209 177 238
-0.20366 0.24453 0.43230 0.02566 0.02793 0.02480 194 185 235 204
0.11987 0.29363 0.35243 0.02990 0.03264 0.01609 146 144 175 203
-0.02777 0.09473 0.34794 0.03037 0.02811 0.01884 133 193 149 207
0.19564 0.22573 0.32345 0.01916 0.01534 0.01854 138 133 144 192
-0.06606 0.06868 0.35246 0.03032 0.02062 0.02212 235 206 196 220
0.05645 0.10111 0.41351 0.02920 0.02868 0.02326 153 148 228 240
-0.19544 0.06773 0.29416 0.02408 0.03346 0.01232 164 192 160 221
-0.10085 0.06252 0.41197 0.02407 0.01691 0.01762 154 213 236 211
0.07637 0.23759 0.36372 0.02186 0.02213 0.01593 143 235 130 195
-0.14313 0.13198 0.39847 0.01718 0.01633 0.01682 219 169 130 216
-0.06907 0.45000 0.44315 0.01998 0.02467 0.01457 213 133 168 217
-0.20677 0.26849 0.32881 0.02134 0.01782 0.02436 225 153 239 217
-0.09989 0.47922 0.25799 0.02204 0.02235 0.02202 228 149 168 240
-0.15570 0.20976 0.34320 0.02147 0.02930 0.02109 232 146 236 228
-0.07900 0.47199 0.45653 0.01844 0.02806 0.01068 194 129 194 236
-0.06643 -0.01557 0.43996 0.01571 0.02341 0.01095 166 213 148 225
0.03656 0.30599 0.39394 0.02677 0.02869 0.02494 190 220 226 221
0.11544 0.35840 0.36155 0.01685 0.01668 0.01142 194 164 200 213
0.24430 0.16206 0.39512 0.02077 0.02142 0.02236 168 146 150 230
-0.14266 0.06789 0.41494 0.01932 0.02852 0.01375 168 180 218 212
-0.03883 0.28847 0.35599 0.03026 0.02751 0.01736 156 182 189 226
0.11102 0.29521 0.33246 0.03200 0.01551 0.01258 218 185 222 195
-0.03892 0.19220 0.38892 0.02419 0.03413 0.01531 145 136 136 215
0.12082 0.04634 0.14630 0.01637 0.02254 0.02110 149 178 191 217
-0.01094 0.07017 0.27439 0.01816 0.02895 0.01547 169 158 191 234
-0.28097 0.30824 0.25056 0.02928 0.01959 0.01314 235 232 186 209
-0.12887 0.04917 0.29687 0.02040 0.02868 0.01267 195 233 189 195
-0.13376 0.15920 0.35283 0.03200 0.02545 0.01041 218 145 187 239
-0.11151 0.37844 0.37754 0.01860 0.02651 0.01472 131 208 133 231
0.10420 -0.12652 0.35377 0.02733 0.02381 0.01225 145 190 165 200
0.02905 0.29975 0.31515 0.01960 0.02710 0.01619 196 229 234 238
0.10377 0.05279 0.34396 0.02137 0.02958 0.02050 128 212 145 209
-0.23307 -0.20908 0.28870 0.03125 0.02551 0.01678 174 164 146 217
0.01748 0.17044 0.19204 0.02024 0.02624 0.01499 196 196 146 239
-0.13072 0.24017 0.46431 0.02145 0.02567 0.01945 202 129 203 233
-0.11053 -0.12875 0.37292 0.02430 0.02279 0.02223 178 181 135 223
-0.11502 0.09865 0.40004 0.02995 0.03462 0.01279 151 148 171 236
0.02002 0.24565 0.26952 0.01969 0.01770 0.02358 217 184 149 195
-0.22367 0.37509 0.13711 0.01907 0.03462 0.01511 220 144 179 203
0.18134 0.01487 0.24462 0.01960 0.02223 0.01642 192 174 160 204
0.04327 0.13245 0.52448 0.02688 0.03357 0.01030 184 147 186 193
0.12831 0.24774 0.41046 0.01961 0.02223 0.02001 177 129 169 196
-0.03953 0.10523 0.31470 0.01763 0.02163 0.01961 227 146 138 238
-0.17931 -0.01387 0.27043 0.02352 0.01529 0.01404 151 153 233 216
-0.23165 -0.04375 0.32835 0.02806 0.02335 0.01714 188 204 178 191
-0.27265 0.22716 0.44353 0.01779 0.01687 0.02499 212 180 191 203
-0.19355 0.15206 0.42223 0.02855 0.02460 0.02293 196 224 184 224
0.02738 -0.11515 0.40599 0.02562 0.02526 0.01414 127 224 140 235
0.01856 0.24266 0.24658 0.02149 0.01810 0.01464 151 132 171 194
0.08455 0.08959 0.32822 0.01527 0.01681 0.01495 131 137 158 216
-0.01282 0.12905 0.35793 0.02250 0.03375 0.01218 129 144 160 235
-0.00618 0.25178 0.32196 0.03232 0.02355 0.01390 197 174 183 239
-0.10884 0.32828 0.28139 0.01881 0.02189 0.01570 206 206 141 237
0.11968 0.36688 0.34324 0.02456 0.02823 0.01334 239 230 183 238
-0.12820 0.23469 0.36312 0.03193 0.03148 0.01390 210 233 216 198
-0.19412 0.36757 0.33603 0.02826 0.03386 0.01618 172 138 138 239
-0.20681 0.28967 0.23669 0.03333 0.03229 0.01569 174 149 136 214
0.04433 -0.03939 0.46654 0.02494 0.02489 0.02391 150 235 211 207
-0.13295 0.34594 0.40586 0.02541 0.03202 0.01535 233 165 234 217
0.00895 0.39260 0.48928 0.02526 0.02392 0.02249 204 179 231 233
0.06172 0.23063 0.42977 0.03034 0.03345 0.02025 220 211 229 213
0.18812 0.08586 0.27926 0.02261 0.02138 0.01901 189 142 180 201
-0.00032 0.07542 0.21063 0.02228 0.01662 0.01711 154 196 152 218
-0.09032 0.26886 0.20261 0.02037 0.03095 0.01197 139 196 155 214
-0.01948 0.38263 0.50798 0.03169 0.01973 0.02054 130 190 171 210
-0.18473 0.15059 0.27780 0.02135 0.03231 0.02009 240 148 166 213
0.13759 -0.08031 0.22429 0.02442 0.01891 0.01006 157 131 193 197
0.03668 0.16382 0.31389 0.03087 0.02815 0.02461 220 135 141 203
0.04873 0.41941 0.40551 0.03212 0.03276 0.01223 241 233 209 221
-0.05576 0.29050 0.38458 0.01983 0.02121 0.02087 240 237 134 209
-0.10264 0.02895 0.24529 0.03217 0.01896 0.01254 169 183 202 192
0.20686 0.13066 0.50352 0.03429 0.03033 0.02267 194 220 149 222
-0.04300 0.08796 0.35797 0.01984 0.02652 0.02266 232 171 202 235
-0.09204 0.03143 0.27602 0.02804 0.02188 0.01336 193 206 204 241
-0.14540 -0.08168 0.43441 0.02050 0.01582 0.01481 221 219 141 204
-0.19487 0.21874 0.49601 0.02526 0.01571 0.01679 156 239 177 230
0.03328 0.19790 0.28290 0.01627 0.02458 0.01610 162 169 218 192
0.06576 0.02017 0.29134 0.03457 0.01661 0.01324 181 196 175 212
-0.20246 0.18554 0.29574 0.02414 0.03087 0.01923 200 218 193 235
-0.08856 0.10838 0.33608 0.02806 0.03007 0.02260 197 162 210 207
0.00784 0.21249 0.34370 0.02773 0.01583 0.02021 165 203 146 232
0.13532 0.26850 0.50296 0.02594 0.01770 0.02154 156 152 206 217
0.01898 0.19455 0.35507 0.02769 0.02543 0.02322 138 236 218 231
-0.00504 0.34685 0.42154 0.03150 0.03188 0.01751 192 227 143 227
0.05831 0.08230 0.19049 0.03051 0.03056 0.02101 206 214 140 195
0.10960 0.25359 0.20983 0.01560 0.02159 0.01282 236 148 186 234
-0.02014 0.39784 0.34771 0.01829 0.02056 0.01914 205 155 158 197
0.06890 0.25318 0.49980 0.01769 0.03000 0.01647 217 146 192 197
0.22218 0.12168 0.29511 0.03062 0.03054 0.01746 220 166 153 216
-0.10663 0.12226 0.38914 0.01963 0.01570 0.01495 205 227 204 225
0.02019 0.18129 0.26206 0.01748 0.01828 0.02447 206 136 225 206
-0.15183 0.26344 0.48296 0.01612 0.01839 0.01234 176 198 129 220
0.03129 0.27600 0.34944 0.02018 0.02732 0.01502 153 212 228 235
0.12709 0.10951 0.29296 0.02853 0.02511 0.01812 232 229 140 232
0.11621 0.33480 0.37940 0.03085 0.01852 0.01173 225 147 239 239
-0.15731 0.25673 0.43808 0.01825 0.02200 0.02484 187 188 154 236
-0.08465 -0.03733 0.33922 0.03343 0.03409 0.01635 135 204 195 216
-0.02912 0.01800 0.37412 0.03259 0.02084 0.02145 174 175 227 213
-0.10620 0.30882 0.37188 0.02894 0.03139 0.01558 202 228 211 194
-0.16147 0.31739 0.30200 0.02911 0.01736 0.02247 172 130 215 218
0.08595 0.04435 0.38720 0.01627 0.02958 0.01524 211 171 183 235
-0.02144 0.22752 0.36739 0.03105 0.02751 0.02169 212 168 138 201
-0.03892 0.22538 0.39112 0.01812 0.02149 0.01164 133 201 216 191
0.08838 0.08212 0.24130 0.01612 0.02513 0.01085 226 221 160 197
-0.02474 0.20793 0.37618 0.02729 0.02647 0.02396 155 228 152 219
-0.26944 0.08826 0.24774 0.01560 0.01935 0.01740 128 161 219 212
-0.09157 0.38708 0.18675 0.02747 0.01792 0.01042 156 202 202 226
0.15342 0.25587 0.27203 0.02596 0.03461 0.01858 183 198 207 206
-0.03086 0.17484 0.39006 0.03275 0.03296 0.01367 146 166 136 222
-0.08710 0.52532 0.44042 0.01901 0.02883 0.02402 227 183 132 194
0.18570 0.01071 0.43104 0.02116 0.02750 0.02198 154 172 185 221
-0.02081 0.21718 0.44386 0.01943 0.03435 0.01451 172 197 144 225
-0.01568 0.03167 0.39805 0.03383 0.03122 0.01390 241 211 238 219
0.03146 0.23085 0.34318 0.02180 0.03236 0.01536 183 214 153 217
0.43691 0.38219 0.35665 0.01736 0.01778 0.02150 190 240 133 235
-0.08988 0.30091 0.27185 0.02419 0.02931 0.01748 151 209 140 221
0.03139 0.07736 0.38406 0.03491 0.03314 0.01888 174 196 175 209
-0.09846 0.27010 0.24765 0.02337 0.02338 0.02072 222 170 130 204
-0.05221 0.15256 0.42713 0.01566 0.03286 0.02337 181 177 161 233
0.11711 0.06385 0.34177 0.01593 0.02419 0.01740 169 142 228 231
0.25112 0.14857 0.31655 0.03466 0.02186 0.01828 220 193 205 193
0.08255 0.23079 0.47517 0.01588 0.03452 0.01265 189 156 204 238
-0.06976 0.24655 0.33786 0.03302 0.01510 0.02441 239 207 140 229
-0.02427 0.20984 0.41873 0.02237 0.02273 0.02401 183 207 233 191
0.04819 0.19029 0.26429 0.02501 0.02936 0.02068 179 178 193 212
0.10621 0.26133 0.32657 0.03338 0.02081 0.01363 231 231 192 197
0.09307 0.13184 0.27236 0.01663 0.01566 0.01730 196 152 183 224
0.15078 0.36472 0.29261 0.02964 0.02583 0.01349 209 161 220 210
0.07408 0.19380 0.31361 0.02428 0.02717 0.01818 151 207 129 233
-0.15679 0.23557 0.49277 0.01780 0.02776 0.01922 168 192 227 224
-0.06948 0.23509 0.21407 0.03059 0.01662 0.01332 152 188 192 200
-0.00478 -0.13589 0.44053 0.03466 0.03472 0.01402 215 162 191 240
0.25018 0.38798 0.34915 0.02985 0.03272 0.01563 227 188 154 216
0.12279 0.50948 0.29632 0.03098 0.02682 0.02080 202 136 231 200
-0.12289 0.57234 0.43023 0.01778 0.02928 0.02121 173 137 185 239
0.13879 0.14664 0.39672 0.02075 0.02923 0.02076 139 133 142 210
0.01030 0.35084 0.34742 0.02683 0.03116 0.02229 209 233 149 236
-0.09331 0.11123 0.33122 0.02895 0.02301 0.02462 161 239 174 218
0.04420 0.20372 0.42537 0.01940 0.02610 0.01622 230 129 224 234
0.08302 0.16679 0.34807 0.01739 0.03330 0.01082 236 178 203 224
0.08350 0.37050 0.40786 0.01736 0.01756 0.01970 140 165 195 234
-0.19241 0.31462 0.31283 0.02387 0.03128 0.01748 156 209 150 227
0.04326 0.21758 0.34493 0.02904 0.02724 0.01256 206 191 218 239
-0.19721 0.23027 0.40892 0.02015 0.02898 0.01945 152 151 130 225
0.06149 0.23722 0.42375 0.01624 0.02143 0.01787 153 195 225 234
-0.12432 0.19347 0.42881 0.03370 0.02039 0.01348 219 214 198 193
-0.01371 -0.02229 0.36392 0.03000 0.02362 0.01529 190 157 213 211
0.17864 0.12572 0.40611 0.02217 0.02938 0.01561 163 212 148 231
-0.09128 0.35727 0.37895 0.03341 0.03198 0.01821 148 195 219 227
-0.14520 0.22175 0.32888 0.02236 0.02369 0.01049 169 150 226 223
0.04145 0.13032 0.33261 0.03460 0.03484 0.01622 187 159 160 199
0.24285 0.07874 0.45693 0.02846 0.02101 0.01389 223 187 179 193
-0.06007 0.30425 0.48045 0.02347 0.01503 0.01323 221 227 198 195
-0.10089 0.44864 0.45176 0.02909 0.01618 0.02190 187 229 224 209
0.03572 0.41634 0.31577 0.02592 0.03073 0.02355 193 128 237 223
-0.20745 0.01069 0.22403 0.02133 0.02051 0.01656 227 212 225 239
0.03227 0.02681 0.33557 0.02807 0.02657 0.01998 214 194 152 231
0.04408 0.01825 0.20500 0.02880 0.01999 0.02133 206 149 227 220
-0.15168 0.02254 -0.11462 0.03499 0.02735 0.01304 215 210 184 236
-0.20112 0.78998 -0.04524 0.03268 0.02611 0.02118 223 173 163 231
0.39794 0.07267 0.53313 0.02436 0.03371 0.01217 141 208 206 198
-0.13601 0.12106 0.07260 0.02872 0.03192 0.01290 172 220 127 212
-0.43676 1.10191 0.25928 0.03353 0.01709 0.01032 213 164 212 203
-0.66194 0.20254 0.25347 0.03122 0.02472 0.02064 157 128 231 197
-0.33723 0.00770 0.61342 0.01569 0.01712 0.01903 232 214 178 225
-0.43326 0.36763 0.35430 0.01781 0.02759 0.01100 197 169 192 221
0.33402 0.04598 0.17516 0.02904 0.03492 0.01914 149 191 161 226
0.07599 0.13684 0.36141 0.01792 0.01707 0.02185 129 240 189 214
-0.60263 0.06283 0.39091 0.02888 0.01952 0.01022 197 174 193 201
0.36799 0.34806 0.50193 0.02498 0.02350 0.02395 186 174 198 213
-0.12777 0.28273 0.08632 0.01577 0.02327 0.02038 223 154 220 215
-0.13788 0.30150 0.09651 0.02012 0.01941 0.01871 158 173 220 200
-0.51734 0.08308 0.46185 0.03263 0.02920 0.02383 209 171 136 199
-0.66408 0.28367 0.03519 0.01675 0.02220 0.02218 180 165 200 215
-0.10294 0.00565 -0.25115 0.01836 0.01543 0.01496 228 203 222 216
0.23572 0.06252 0.46438 0.01709 0.01740 0.02041 135 166 224 235
-0.72834 0.09132 0.08500 0.02588 0.02550 0.01841 145 203 196 223
-0.23983 0.59684 0.18846 0.01974 0.01780 0.01215 232 234 185 231
-0.07195 0.42838 -0.28142 0.02178 0.03141 0.01307 215 191 218 203
0.13309 0.22677 0.30579 0.01804 0.02035 0.01264 199 230 232 224
0.01960 0.36087 0.33459 0.02333 0.02428 0.01532 187 164 215 216
0.41689 0.00159 0.40295 0.03181 0.02283 0.02329 140 193 142 201
-0.05425 0.07717 0.37885 0.01575 0.02667 0.01254 174 204 186 228
-0.19278 0.33837 0.26811 0.02662 0.01952 0.01346 151 230 194 200
0.22939 0.24523 0.13704 0.03271 0.03402 0.02129 175 180 178 211
-0.20627 0.13568 0.19681 0.02411 0.02719 0.01127 162 131 217 232
-0.04068 0.59624 -0.13909 0.02559 0.02512 0.02077 191 145 234 202
0.39982 0.23110 0.44631 0.01929 0.02812 0.02167 158 173 224 194
-0.00102 0.16593 0.25795 0.03200 0.02678 0.01236 139 135 156 207
0.50390 0.23396 0.08525 0.03087 0.02320 0.02058 177 225 224 210
-0.35129 0.13876 0.37401 0.02487 0.02417 0.02434 127 163 215 238
0.18548 0.04939 0.37137 0.02650 0.02124 0.01475 165 213 131 235
0.14878 0.07054 -0.05326 0.02363 0.02883 0.01674 236 214 241 198
0.18194 0.20151 0.01897 0.01795 0.03125 0.01833 179 230 203 231
0.10662 0.11561 -0.07491 0.01848 0.02592 0.02446 199 227 154 196
-0.14876 0.09894 0.09579 0.03229 0.01906 0.02073 183 131 223 225
0.45057 0.97488 -0.12989 0.01558 0.03102 0.01422 159 141 174 202
0.09457 0.05227 0.09146 0.01801 0.02635 0.01480 194 175 210 228
0.44108 0.06147 -0.05003 0.03180 0.02630 0.01009 209 195 189 208
-0.13902 0.05877 0.11998 0.02863 0.02999 0.01923 194 227 231 238
0.45743 0.06960 -0.05752 0.02518 0.03075 0.01737 129 161 211 216
0.50026 0.42657 -0.02452 0.01816 0.01883 0.01597 217 157 139 199
-0.19839 0.30800 0.14234 0.02902 0.01656 0.02245 159 222 220 214
0.96581 0.02058 0.20892 0.01982 0.01703 0.01517 155 171 189 211
0.17202 0.27697 0.15874 0.02951 0.03334 0.01951 215 193 188 214
0.53198 0.18005 0.29282 0.03490 0.02240 0.01618 173 159 191 199
0.02810 0.41978 0.44993 0.02826 0.01680 0.01207 206 155 226 193
0.45714 0.07771 0.17235 0.02117 0.01756 0.01740 137 164 162 240
0.31488 0.60402 0.30412 0.02631 0.01581 0.02231 129 212 235 223
0.05092 0.12333 0.20576 0.02331 0.03284 0.01693 183 219 130 241
-0.54725 0.17303 0.29576 0.02322 0.02207 0.01071 138 232 211 203
-0.21988 0.37217 0.39118 0.01634 0.02235 0.01580 164 230 218 208
0.40128 0.07760 -0.13300 0.01563 0.01534 0.02226 219 138 213 229
0.26038 0.34320 0.28855 0.02858 0.02586 0.01003 133 213 228 238
0.02602 0.35862 0.16245 0.01991 0.02380 0.02285 148 185 178 210
0.43714 0.03036 -0.24675 0.01505 0.02222 0.01932 154 186 204 230
-0.75925 0.38111 0.39682 0.02480 0.02882 0.01105 197 174 197 226
-0.37134 0.00091 0.38146 0.03108 0.01784 0.01972 210 200 146 196
-0.43071 0.08432 -0.01346 0.02188 0.02374 0.01885 143 138 226 229
0.26528 0.28978 -0.10436 0.03421 0.02604 0.01363 208 187 159 219
-0.25021 0.16118 0.17166 0.01558 0.02478 0.01627 241 153 196 227
-0.32681 0.00426 0.06710 0.02076 0.02632 0.01658 154 168 136 191
-0.63033 0.50074 0.07726 0.02317 0.02369 0.02018 162 232 187 234
-0.18894 0.20223 0.37782 0.02948 0.01822 0.02385 228 187 233 226
-0.72455 0.04250 0.20837 0.01883 0.02171 0.01172 180 148 211 228
0.42389 0.47775 0.16803 0.03025 0.03346 0.02438 143 159 180 212
-0.51091 0.10939 0.15542 0.02407 0.02528 0.01087 198 193 169 192
-0.47838 0.10208 0.26847 0.02133 0.02694 0.01486 167 149 174 201
0.36431 0.04688 -0.31820 0.01743 0.02694 0.01295 158 223 195 202
0.04227 0.12487 0.32377 0.01967 0.02211 0.01211 156 176 203 237
0.16518 0.28722 0.22175 0.02224 0.02904 0.01550 172 223 130 200
-0.16967 0.36640 0.24490 0.03246 0.03309 0.02270 158 238 232 209
-0.28828 0.20835 0.13884 0.03271 0.01990 0.01866 175 127 199 224
0.04538 0.02709 0.40050 0.01576 0.01574 0.01248 168 210 229 198
0.15192 0.52402 0.02969 0.01829 0.01914 0.02172 223 224 224 198
-0.20650 0.04421 -0.11478 0.01772 0.01715 0.02462 159 230 227 191
-0.23708 0.29790 0.20047 0.03368 0.03139 0.01038 195 204 162 232
-0.21967 0.63547 -0.11209 0.03083 0.03209 0.02245 185 132 184 218
-0.21323 0.32068 -0.14724 0.03057 0.03000 0.01747 183 204 239 192
-0.81352 0.18910 0.14284 0.03194 0.01899 0.02343 194 227 222 232
-0.13754 0.09581 0.02857 0.02891 0.01515 0.01694 229 130 140 234
-0.02125 0.04941 0.09107 0.02837 0.01587 0.01030 241 197 228 220
-0.11790 0.22102 0.26336 0.02052 0.01598 0.01812 207 240 226 208
0.14288 0.11736 0.18833 0.02355 0.03275 0.02158 221 236 154 197
-0.05050 0.09148 0.22483 0.02665 0.02483 0.02005 143 201 238 201
0.72964 0.20598 0.23305 0.02115 0.01639 0.02229 165 195 228 230
0.02477 0.11271 -0.16294 0.02437 0.02846 0.01269 177 215 203 216
-0.15449 0.10778 0.06461 0.01867 0.02866 0.01344 138 193 238 218
0.09367 0.07208 0.49095 0.01803 0.02714 0.01498 240 144 142 208
0.13641 0.00595 0.12258 0.02932 0.02060 0.01523 147 213 142 227
0.26805 0.29253 0.27572 0.02701 0.01830 0.01400 136 185 215 198
-0.56025 0.12457 0.37983 0.02658 0.02737 0.01442 149 147 170 203
-0.06564 0.10349 0.51350 0.01840 0.01801 0.01549 156 136 148 231
-0.03237 0.13306 0.29162 0.01826 0.01646 0.02282 174 203 128 198
-0.18038 0.07636 -0.21268 0.03000 0.03112 0.01788 152 229 193 217
0.36844 0.05100 0.20542 0.01855 0.02055 0.01867 178 197 144 217
0.22340 0.29956 0.29931 0.01769 0.02037 0.01635 173 172 165 222
0.28887 0.39769 0.42078 0.02226 0.02902 0.02229 238 157 181 228
-0.30286 0.04674 0.19210 0.01579 0.02396 0.01906 215 162 153 239
-0.44759 0.23809 0.33010 0.01705 0.02873 0.01126 240 164 128 237
-0.64931 0.20766 0.83661 0.03360 0.01952 0.01569 228 161 142 236
-0.61342 0.13846 0.19136 0.02382 0.03101 0.01717 225 180 216 236
0.25590 0.13997 0.43530 0.02250 0.02357 0.01328 185 182 181 235
-0.34648 0.39273 0.50865 0.02963 0.03431 0.02128 210 128 140 205
0.11872 0.33486 0.03637 0.03421 0.01836 0.02195 127 191 217 228
0.49350 0.09516 0.37888 0.02769 0.01924 0.01304 188 128 178 202
-0.41522 0.23580 -0.15670 0.01924 0.02799 0.01808 131 228 132 209
-0.21604 0.36072 0.06680 0.03186 0.02838 0.02065 218 227 219 194
-0.19571 0.28973 0.53609 0.03417 0.01807 0.01134 154 180 231 217
-0.24213 0.44324 0.18541 0.03419 0.02331 0.02465 235 227 193 242
0.19732 0.00011 0.10368 0.01579 0.01599 0.02229 161 230 173 231
0.15782 0.35061 0.06960 0.01745 0.03380 0.01755 164 180 185 240
0.33643 0.55238 0.55472 0.02896 0.01857 0.01083 222 148 165 217
-0.20278 0.23918 -0.02114 0.02057 0.02509 0.02329 179 191 187 206
-0.07572 0.55527 0.05657 0.02597 0.02449 0.01264 227 222 181 209
-0.11643 0.09045 0.25642 0.01836 0.02001 0.01229 239 215 140 226
-0.42403 0.27220 -0.16525 0.01943 0.01904 0.01645 214 230 189 197
-0.21896 0.37460 0.39733 0.02426 0.02769 0.01636 211 172 151 215
0.48221 0.22226 0.75087 0.02830 0.03215 0.01265 213 226 241 234
-0.28931 0.22715 0.19304 0.02422 0.02630 0.01374 215 236 192 215
0.06418 0.03768 0.30894 0.03357 0.03177 0.01799 147 193 138 211
0.02391 0.25225 -0.01021 0.03278 0.02212 0.01517 134 137 128 234
-0.62167 0.24263 0.50849 0.03336 0.01721 0.01319 199 195 139 229
0.34666 0.28602 0.00458 0.02676 0.02101 0.01023 211 220 134 193
-0.11578 0.01336 -0.00788 0.01960 0.03298 0.01360 146 213 213 199
-0.52227 0.04560 0.54800 0.02647 0.02750 0.02250 208 138 220 212
-0.38539 0.30906 0.20833 0.02723 0.03340 0.02021 238 226 153 212
0.00258 0.16897 -0.14728 0.02441 0.03102 0.01419 147 194 214 193
-0.79390 0.14232 -0.10778 0.01549 0.02173 0.01042 167 209 144 207
-0.20689 0.35073 -0.00375 0.01997 0.01634 0.01905 213 214 186 217
-0.44163 0.26896 0.06855 0.01978 0.01928 0.02493 240 197 191 233
0.14273 0.12912 0.30615 0.02376 0.02834 0.02392 159 135 200 216
0.28523 0.48855 0.15605 0.02086 0.02639 0.02384 206 175 162 226
-0.00861 0.77020 0.41942 0.01680 0.02958 0.01783 218 204 158 199
-0.11726 0.44463 0.18465 0.03037 0.01761 0.01302 208 143 131 197
-0.39848 0.14115 0.13923 0.02919 0.02784 0.02057 227 239 139 212
-0.71637 0.07324 0.44653 0.02298 0.03124 0.01913 150 167 241 223
-0.34868 0.22633 0.24971 0.03453 0.03030 0.01179 241 167 216 216
-0.41321 0.27023 0.31530 0.03460 0.02884 0.02008 191 136 155 203
0.07978 0.08243 0.32967 0.01691 0.02178 0.01387 205 181 160 227
0.10650 0.00870 0.18776 0.03196 0.01851 0.02405 212 228 241 191
0.27960 0.07968 0.42305 0.02672 0.01997 0.01244 208 128 176 194
-0.26172 0.10864 0.04663 0.02513 0.01926 0.01539 231 186 171 217
-0.27710 0.37814 -0.01761 0.02645 0.02615 0.01084 229 233 144 212
-0.07500 0.27614 -0.02082 0.02883 0.02628 0.02053 188 218 155 205
-0.10805 0.17515 -0.13789 0.03391 0.01639 0.01429 198 174 190 198
0.15182 0.09490 0.16688 0.02011 0.02856 0.02119 186 234 151 195
-0.34470 0.04372 0.06773 0.03063 0.01882 0.01183 188 200 226 226
-0.23826 0.47462 0.11854 0.01664 0.03439 0.02195 198 135 150 206
-0.38751 0.05354 0.24101 0.02748 0.02857 0.01870 148 132 193 237
-0.18615 0.15302 0.01650 0.03172 0.01618 0.01396 218 171 168 232
-0.06188 0.01269 -0.11957 0.01870 0.03448 0.02393 197 193 155 200
-0.69648 0.09412 0.01553 0.02344 0.02203 0.02059 148 205 204 234
-0.00849 0.31625 0.06310 0.03316 0.02281 0.02419 239 170 230 228
0.49136 0.03357 0.31816 0.02933 0.01559 0.02456 130 229 197 208
-0.50266 0.05533 -0.06659 0.03018 0.02812 0.01247 199 200 213 196
-0.45560 0.32735 -0.14110 0.01674 0.02434 0.01703 164 196 221 224
-0.14461 0.15462 0.59211 0.03209 0.02371 0.01228 180 183 166 235
-0.14336 0.16035 0.35834 0.02640 0.02396 0.01380 136 165 175 208
0.15036 0.39236 0.70737 0.03474 0.03068 0.02407 179 239 207 192
-0.43760 0.04007 0.04366 0.03477 0.02724 0.02379 145 175 181 192
0.36344 0.46949 -0.20569 0.03368 0.03090 0.01440 191 241 197 238
-0.38750 0.27323 0.04455 0.03468 0.02831 0.02002 169 158 199 195
0.11735 0.09225 0.12031 0.01643 0.01734 0.01616 206 162 145 220
0.10224 0.08922 0.24055 0.02039 0.01939 0.02234 216 176 142 198
-0.02542 0.14116 0.08491 0.01943 0.02174 0.01060 130 191 149 212
-0.63054 0.03902 0.05946 0.03192 0.02811 0.01684 213 166 230 217
-0.64989 0.07433 0.43357 0.03451 0.02964 0.02303 188 157 129 219
0.14183 0.14567 0.26265 0.03229 0.03498 0.01515 148 132 233 231
0.28589 0.01181 -0.02849 0.03019 0.03197 0.01055 218 217 193 224
0.54900 0.27589 0.17691 0.01520 0.01999 0.02465 202 203 231 214
-0.23355 0.21602 0.16252 0.02308 0.02954 0.01907 204 139 210 194
0.14489 0.06261 0.41834 0.02289 0.02632 0.02256 215 141 225 195
-0.21959 0.11675 -0.04204 0.03318 0.03464 0.01388 171 153 142 202
0.03507 0.55314 0.08845 0.01642 0.01690 0.01545 192 175 135 212
0.45292 0.19184 0.39025 0.02614 0.02478 0.02428 210 131 212 233
0.29408 0.14840 0.32875 0.02740 0.02047 0.01027 170 141 145 239
-0.31257 0.11773 0.21202 0.02711 0.01659 0.02314 141 240 223 233
-0.39089 0.17033 0.28046 0.02744 0.02374 0.01532 221 241 170 195
-0.47576 0.57919 0.48354 0.01833 0.03432 0.01403 144 209 151 223
-0.11137 0.11316 0.09467 0.02237 0.03425 0.02027 214 150 226 224
-0.63107 0.49020 0.42756 0.02739 0.02383 0.02445 136 145 192 198
-0.04551 0.43809 0.69911 0.02150 0.02933 0.01953 127 143 196 205
0.25470 0.20018 0.11564 0.02088 0.02212 0.01109 133 226 148 234
0.11554 0.23169 0.14614 0.02836 0.01889 0.02015 186 192 235 199
0.06716 0.09463 -0.13384 0.01925 0.02191 0.01043 128 175 166 224
0.04012 0.20731 0.32577 0.02517 0.03084 0.01570 167 178 212 194
-0.52681 0.07980 -0.15054 0.01655 0.03420 0.02292 197 137 171 207
